<?xml version="1.0" encoding="utf-8"?>
<!-- Generator: Adobe Illustrator 22.1.0, SVG Export Plug-In . SVG Version: 6.00 Build 0)  -->
<svg version="1.1" id="Layer_1" xmlns="http://www.w3.org/2000/svg" xmlns:xlink="http://www.w3.org/1999/xlink" x="0px" y="0px"
	 viewBox="0 0 1080 4062.1" style="enable-background:new 0 0 1080 4062.1;" xml:space="preserve">
<style type="text/css">
	.st0{fill:none;stroke:#A8A8A8;stroke-width:3;stroke-miterlimit:10;}
	.st1{fill:none;stroke:#A8A8A8;stroke-width:3;stroke-miterlimit:10;stroke-dasharray:11.9254,11.9254;}
	.st2{fill:none;}
	.st3{fill:none;stroke:#D3D3D3;stroke-width:3;stroke-miterlimit:10;}
	.st4{fill:none;stroke:#D3D3D3;stroke-width:3;stroke-miterlimit:10;stroke-dasharray:12.1135,12.1135;}
	.st5{fill:none;stroke:#D3D3D3;stroke-width:3;stroke-miterlimit:10;stroke-dasharray:12;}
	.st6{fill:none;stroke:#A8A8A8;stroke-width:3;stroke-miterlimit:10;stroke-dasharray:11.8851,11.8851;}
	.st7{fill:none;stroke:#A8A8A8;stroke-width:3;stroke-miterlimit:10;stroke-dasharray:12.1605,12.1605;}
	.st8{fill:none;stroke:#A8A8A8;stroke-width:3;stroke-miterlimit:10;stroke-dasharray:12.0954,12.0954;}
	.st9{fill:none;stroke:#A8A8A8;stroke-width:3;stroke-miterlimit:10;stroke-dasharray:11.9998,11.9998;}
	.st10{fill:none;stroke:#A8A8A8;stroke-width:3;stroke-miterlimit:10;stroke-dasharray:12.0901,12.0901;}
	.st11{fill:none;stroke:#A8A8A8;stroke-width:3;stroke-miterlimit:10;stroke-dasharray:12.0252,12.0252;}
	.st12{fill:none;stroke:#A8A8A8;stroke-width:3;stroke-miterlimit:10;stroke-dasharray:11.9995,11.9995;}
	.st13{fill:none;stroke:#A8A8A8;stroke-width:3;stroke-miterlimit:10;stroke-dasharray:11.9883,11.9883;}
	.st14{fill:none;stroke:#6D6E70;stroke-width:3;stroke-miterlimit:10;}
	.st15{fill:none;stroke:#6D6E70;stroke-width:3;stroke-miterlimit:10;stroke-dasharray:12.0978,12.0978;}
	.st16{fill:#7C77B9;}
	.st17{fill:#4F4F4F;}
	.st18{fill:#1D8A99;}
	.st19{fill:#6CCDDE;}
	.st20{fill:#E9D758;}
	.st21{fill:#82FF9F;}
</style>
<g>
	<g>
		<line class="st0" x1="-378.6" y1="3544.7" x2="-372.7" y2="3546.1"/>
		<line class="st1" x1="-361.1" y1="3548.9" x2="932.4" y2="3856.8"/>
		<line class="st0" x1="938.2" y1="3858.2" x2="944" y2="3859.6"/>
	</g>
</g>
<g>
	<path class="st2" d="M-1299.3,1273.4"/>
</g>
<g>
	<path class="st2" d="M-963,1550.6"/>
</g>
<g>
	<g>
		<line class="st3" x1="316.9" y1="3106.5" x2="320.7" y2="3111.1"/>
		<line class="st4" x1="328.5" y1="3120.4" x2="944.2" y2="3860.8"/>
		<line class="st3" x1="948.1" y1="3865.5" x2="952" y2="3870.1"/>
	</g>
</g>
<path class="st5" d="M936.2-203.9"/>
<path class="st5" d="M619.7,1042.3"/>
<g>
	<path class="st2" d="M586.9,960"/>
</g>
<g>
	<path class="st2" d="M824.4,1757.3"/>
</g>
<g>
	<path class="st2" d="M-412,1407.4"/>
</g>
<g>
	<path class="st2" d="M224.7,1407.4"/>
</g>
<g>
	<path class="st2" d="M546.6,556.6"/>
</g>
<g>
	<path class="st2" d="M53.3,1571.9"/>
</g>
<g>
	<path class="st2" d="M97-144.9"/>
</g>
<g>
	<path class="st2" d="M575.1,995.7"/>
</g>
<g>
	<g>
		<line class="st0" x1="929.9" y1="896.8" x2="929.8" y2="902.8"/>
		<line class="st6" x1="929.4" y1="914.7" x2="895.6" y2="2073"/>
		<line class="st0" x1="895.4" y1="2078.9" x2="895.3" y2="2084.9"/>
	</g>
</g>
<g>
	<g>
		<line class="st0" x1="261.8" y1="274.8" x2="266.6" y2="278.5"/>
		<line class="st7" x1="276.2" y1="285.9" x2="963.5" y2="818.4"/>
		<line class="st0" x1="968.3" y1="822.2" x2="973.1" y2="825.8"/>
	</g>
</g>
<g>
	<g>
		<line class="st0" x1="381.3" y1="1556.5" x2="384.3" y2="1561.6"/>
		<line class="st8" x1="390.4" y1="1572.1" x2="888.9" y2="2422.6"/>
		<line class="st0" x1="891.9" y1="2427.8" x2="894.9" y2="2433"/>
	</g>
</g>
<g>
	<g>
		<line class="st0" x1="199.1" y1="225" x2="199.8" y2="231"/>
		<line class="st9" x1="201" y1="242.9" x2="315.7" y2="1334.9"/>
		<line class="st0" x1="316.3" y1="1340.9" x2="316.9" y2="1346.9"/>
	</g>
</g>
<g>
	<g>
		<line class="st0" x1="-314.2" y1="1994.7" x2="-309.1" y2="1991.5"/>
		<line class="st10" x1="-298.9" y1="1985.1" x2="371.1" y2="1562.9"/>
		<line class="st0" x1="376.2" y1="1559.7" x2="381.3" y2="1556.5"/>
	</g>
</g>
<g>
	<g>
		<line class="st0" x1="-378.6" y1="3544.7" x2="-373.5" y2="3541.5"/>
		<line class="st10" x1="-363.3" y1="3535.1" x2="306.7" y2="3112.9"/>
		<line class="st0" x1="311.8" y1="3109.7" x2="316.9" y2="3106.5"/>
	</g>
</g>
<g>
	<g>
		<line class="st0" x1="915.7" y1="873.1" x2="914" y2="867.4"/>
		<line class="st11" x1="910.6" y1="855.9" x2="808.9" y2="516"/>
		<line class="st0" x1="807.1" y1="510.3" x2="805.4" y2="504.5"/>
	</g>
</g>
<g>
	<path class="st2" d="M603.3,1004.1"/>
</g>
<g>
	<path class="st2" d="M540,1313.7"/>
</g>
<g>
	<g>
		<line class="st0" x1="381.3" y1="1571.9" x2="381" y2="1577.9"/>
		<line class="st12" x1="380.5" y1="1589.9" x2="317.4" y2="3094.5"/>
		<line class="st0" x1="317.2" y1="3100.5" x2="316.9" y2="3106.5"/>
	</g>
</g>
<g>
	<g>
		<line class="st0" x1="881.1" y1="2361.2" x2="881.3" y2="2367.2"/>
		<line class="st13" x1="881.9" y1="2379.2" x2="951.4" y2="3858.1"/>
		<line class="st0" x1="951.7" y1="3864.1" x2="952" y2="3870.1"/>
	</g>
</g>
<g>
	<path class="st2" d="M540,342.3"/>
</g>
<g>
	<path class="st2" d="M568.3,896.8"/>
</g>
<g>
	<g>
		<line class="st14" x1="381.3" y1="1556.5" x2="384.6" y2="1551.5"/>
		<line class="st15" x1="391.4" y1="1541.5" x2="874.3" y2="823.8"/>
		<line class="st14" x1="877.7" y1="818.8" x2="881.1" y2="813.8"/>
	</g>
</g>
<circle class="st16" cx="973.1" cy="825.8" r="433.1"/>
<circle class="st17" cx="381.3" cy="1556.5" r="375.4"/>
<circle class="st18" cx="881.1" cy="2361.2" r="385"/>
<circle class="st19" cx="944" cy="3859.6" r="463.8"/>
<circle class="st20" cx="316.9" cy="3106.5" r="395.9"/>
<circle class="st21" cx="204.3" cy="225" r="381.8"/>
</svg>
