<?xml version="1.0" encoding="utf-8"?>
<!-- Generator: Adobe Illustrator 22.1.0, SVG Export Plug-In . SVG Version: 6.00 Build 0)  -->
<svg version="1.1" id="Isolation_Mode" xmlns="http://www.w3.org/2000/svg" xmlns:xlink="http://www.w3.org/1999/xlink" x="0px"
	 y="0px" viewBox="0 0 20 17.8" style="enable-background:new 0 0 20 17.8;" xml:space="preserve">
<style type="text/css">
	.st0{fill-rule:evenodd;clip-rule:evenodd;fill:#FFFFFF;}
</style>
<g>
	<path class="st0" d="M9.3,5.7H6.8C6.8,5,6.3,4.6,5.5,4.6C4.8,4.6,4.3,4.8,4,5.3C3.7,5.9,3.4,6.7,3.4,8l0,0c0.5-0.7,1.2-1,2.2-1
		c1.2,0,2.2,0.4,2.9,1.2c0.6,0.8,1,1.7,1,2.8c0,1.1-0.3,2.1-1,2.9c-0.8,0.9-1.8,1.3-3.1,1.3c-0.8,0-1.5-0.1-2-0.4
		c-1.6-0.8-2.4-2.7-2.4-5.5c0-0.3,0-0.6,0-0.9c0.1-1.8,0.5-3.1,1-4c0.7-1.1,1.9-1.7,3.6-1.7c1,0,1.8,0.3,2.5,0.8
		C8.8,4,9.1,4.7,9.3,5.7 M7.1,11c0-0.7-0.2-1.2-0.6-1.6C6.2,9.1,5.8,8.9,5.3,8.9C4.8,8.9,4.3,9.1,4,9.4C3.6,9.8,3.4,10.3,3.4,11
		c0,0.1,0,0.3,0,0.4c0.1,0.6,0.3,1.1,0.7,1.4c0.3,0.3,0.8,0.5,1.2,0.5c0.6,0,1-0.2,1.3-0.7C6.9,12.1,7.1,11.6,7.1,11"/>
	<path class="st0" d="M15.1,2.7c1.2,0,2.1,0.4,2.8,1.3c0.6,0.8,1,1.7,1,2.8c0,1.1-0.3,2-1,2.7c-0.7,0.8-1.7,1.2-2.9,1.2l-2.4,0v4.5
		H9.9V2.7L15.1,2.7z M14.4,8.5c0.7,0,1.2-0.2,1.6-0.6c0.4-0.4,0.5-0.8,0.5-1.3c0-0.5-0.2-0.9-0.5-1.3c-0.4-0.4-0.9-0.6-1.6-0.6h-1.9
		v3.7H14.4z"/>
</g>
</svg>
