<svg id="Isolation_Mode" data-name="Isolation Mode" xmlns="http://www.w3.org/2000/svg" viewBox="0 0 77.58 24.25"><defs><style>.cls-1,.cls-2{fill:#000;}.cls-1{fill-rule:evenodd;}</style></defs><title>Artboard 1</title><path class="cls-1" d="M17.07,9.9H14.64a1.16,1.16,0,0,0-1.33-1.15,1.7,1.7,0,0,0-1.52.76,5.69,5.69,0,0,0-.63,2.62l0,0a2.76,2.76,0,0,1,2.22-1,3.59,3.59,0,0,1,2.93,1.23,4.2,4.2,0,0,1,1,2.81,4.29,4.29,0,0,1-1,2.89,3.88,3.88,0,0,1-3.11,1.33A4.37,4.37,0,0,1,11.12,19c-1.58-.85-2.38-2.69-2.38-5.51,0-.3,0-.61,0-.92a8.5,8.5,0,0,1,1-4A4.1,4.1,0,0,1,13.43,6.8a3.81,3.81,0,0,1,2.48.8,3.37,3.37,0,0,1,1.16,2.3m-2.18,5.26a2.23,2.23,0,0,0-.56-1.59A1.69,1.69,0,0,0,13.07,13a1.74,1.74,0,0,0-1.28.53,2.12,2.12,0,0,0-.58,1.56c0,.12,0,.25,0,.39A2.23,2.23,0,0,0,11.91,17a1.67,1.67,0,0,0,1.21.5,1.51,1.51,0,0,0,1.35-.74,3.1,3.1,0,0,0,.42-1.55"/><path class="cls-1" d="M22.89,6.82A3.52,3.52,0,0,1,25.73,8.1a4.28,4.28,0,0,1,1,2.8,4,4,0,0,1-1,2.73,3.74,3.74,0,0,1-2.95,1.22H20.36V19.4H17.7V6.82Zm-.67,5.88a2.22,2.22,0,0,0,1.62-.6,1.71,1.71,0,0,0,.55-1.27,1.74,1.74,0,0,0-.55-1.27A2.29,2.29,0,0,0,22.22,9H20.36v3.7Z"/><path class="cls-2" d="M70.11,10a3.41,3.41,0,0,0-.9.69,1.08,1.08,0,0,0-.24.67,1,1,0,0,0,.17.55,1.13,1.13,0,0,0,.43.41,1.27,1.27,0,0,0,.61.14,1.49,1.49,0,0,0,.7-.18,2,2,0,0,0,.59-.62Zm.16-.54c.59-.34.88-.7.88-1.1a.67.67,0,0,0-.22-.51.7.7,0,0,0-.53-.22.78.78,0,0,0-.56.21.67.67,0,0,0-.21.5.86.86,0,0,0,.1.38,4.16,4.16,0,0,0,.54.74m2.07.86a3.44,3.44,0,0,1-.1.65,2.6,2.6,0,0,1-.23.62l1,1.17h-.62L71.75,12a1.86,1.86,0,0,1-1.62.88,1.8,1.8,0,0,1-.89-.21,1.56,1.56,0,0,1-.57-.54,1.47,1.47,0,0,1-.19-.75,1.54,1.54,0,0,1,.16-.67,2,2,0,0,1,.54-.59,5.64,5.64,0,0,1,.67-.43,3.69,3.69,0,0,1-.55-.8,1.18,1.18,0,0,1-.13-.53,1.05,1.05,0,0,1,.34-.8,1.25,1.25,0,0,1,.9-.32,1.21,1.21,0,0,1,.87.32,1,1,0,0,1,.33.78,1.32,1.32,0,0,1-.23.74,3.09,3.09,0,0,1-.85.71l1.17,1.44a3.29,3.29,0,0,0,.19-.9ZM63.78,9.07a1.31,1.31,0,0,0-.68.19,1.12,1.12,0,0,0-.46.58,2.35,2.35,0,0,0,0,1.68,1.2,1.2,0,0,0,.46.57,1.16,1.16,0,0,0,.68.21,1.23,1.23,0,0,0,.7-.21,1.18,1.18,0,0,0,.47-.58,2.18,2.18,0,0,0,.16-.87,1.92,1.92,0,0,0-.16-.81,1.2,1.2,0,0,0-.46-.57,1.36,1.36,0,0,0-.7-.19m1.79-.31v3.62a4,4,0,0,1-.07.83,1.45,1.45,0,0,1-.22.47A1.26,1.26,0,0,1,65,14a1.6,1.6,0,0,1-.49.23,2.5,2.5,0,0,1-.69.09,2.37,2.37,0,0,1-.83-.14,1.35,1.35,0,0,1-.57-.41,1.27,1.27,0,0,1-.23-.66h.5a.79.79,0,0,0,.23.52,1.24,1.24,0,0,0,.91.31,1.84,1.84,0,0,0,.65-.11.78.78,0,0,0,.33-.21.86.86,0,0,0,.21-.35,2.17,2.17,0,0,0,.12-.78v-.67a2.09,2.09,0,0,1-.26.41,1.48,1.48,0,0,1-.47.35,1.69,1.69,0,0,1-.66.12,1.63,1.63,0,0,1-1.25-.52A2.09,2.09,0,0,1,62,10.73a2.54,2.54,0,0,1,.22-1.1,1.65,1.65,0,0,1,.65-.73,1.79,1.79,0,0,1,.9-.25,1.47,1.47,0,0,1,.64.14,1.35,1.35,0,0,1,.47.34,1.31,1.31,0,0,1,.25.39V8.76Zm-7.65,0v.76a2.33,2.33,0,0,1,.29-.41,1.47,1.47,0,0,1,.47-.33,1.64,1.64,0,0,1,.65-.13,1.76,1.76,0,0,1,.66.13,1.08,1.08,0,0,1,.46.32,1.17,1.17,0,0,1,.22.48,2.42,2.42,0,0,1,0,.62v2.56h-.49V10.35a2.69,2.69,0,0,0-.08-.75.8.8,0,0,0-.33-.38,1.15,1.15,0,0,0-.57-.14,1.27,1.27,0,0,0-.63.14,1,1,0,0,0-.41.35,1.66,1.66,0,0,0-.21.52,3.42,3.42,0,0,0,0,.67v2h-.48v-4Zm-1.93,4H55.5v-4H56ZM56,8H55.5V7.2H56Zm-1.75.77v.4h-.82v2.52a2,2,0,0,0,0,.44.31.31,0,0,0,.15.17.62.62,0,0,0,.32.06l.32,0v.42a3.11,3.11,0,0,1-.43,0,1.32,1.32,0,0,1-.51-.08.6.6,0,0,1-.25-.22,1,1,0,0,1-.1-.36c0-.1,0-.32,0-.68V9.17h-.7v-.4h.7V7.55h.49V8.77ZM51,10.48a2.58,2.58,0,0,0-.08-.53,1.52,1.52,0,0,0-.24-.43,1.12,1.12,0,0,0-.4-.34,1.2,1.2,0,0,0-.55-.12,1.28,1.28,0,0,0-.56.12,1.2,1.2,0,0,0-.41.33,1.43,1.43,0,0,0-.26.49,4.71,4.71,0,0,0-.09.48Zm.45,1a1.87,1.87,0,0,1-.3.74,1.47,1.47,0,0,1-.56.52,1.92,1.92,0,0,1-.84.18,1.67,1.67,0,0,1-1.43-.68,2.34,2.34,0,0,1-.4-1.4A2.52,2.52,0,0,1,48,9.92a1.86,1.86,0,0,1,.38-.68A2,2,0,0,1,49,8.81a1.72,1.72,0,0,1,.74-.16,1.68,1.68,0,0,1,.79.19,1.63,1.63,0,0,1,.55.49,1.93,1.93,0,0,1,.32.66,3.7,3.7,0,0,1,.09.89H48.36a2.26,2.26,0,0,0,.12.75,1.35,1.35,0,0,0,.46.64,1.27,1.27,0,0,0,.76.23,1.17,1.17,0,0,0,.79-.27,1.37,1.37,0,0,0,.44-.78ZM47,8.76l-1.71,1.47,1.83,2.53h-.62l-1.59-2.19-.79.67v1.52h-.47V7.23h.47v3.48l.31-.28,1.91-1.67ZM42.71,8.7v.5h-.13a1.36,1.36,0,0,0-.51.1,1.31,1.31,0,0,0-.41.26,1.25,1.25,0,0,0-.26.33,2,2,0,0,0-.13.43,4.08,4.08,0,0,0-.06.82v1.63h-.47v-4h.45v1a1.92,1.92,0,0,1,.35-.57A1.36,1.36,0,0,1,42,8.81a2,2,0,0,1,.69-.11m-4,1.88a.56.56,0,0,1-.22.13,4.57,4.57,0,0,1-.67.13,3.84,3.84,0,0,0-.88.18.75.75,0,0,0-.38.28.7.7,0,0,0-.12.4.72.72,0,0,0,.21.53.9.9,0,0,0,.7.23,1.52,1.52,0,0,0,.94-.31,1.1,1.1,0,0,0,.42-.92Zm.93,1.78v.37a1.07,1.07,0,0,1-.39.07.45.45,0,0,1-.43-.23,1,1,0,0,1-.09-.51,2.07,2.07,0,0,1-.29.37,1.45,1.45,0,0,1-.51.31,1.86,1.86,0,0,1-.7.12,1.35,1.35,0,0,1-1-.31,1,1,0,0,1-.33-.8A1.33,1.33,0,0,1,36,11.3a1.15,1.15,0,0,1,.22-.35,1.35,1.35,0,0,1,.35-.24,2.62,2.62,0,0,1,.55-.16l.62-.07.47-.05a1.12,1.12,0,0,0,.31-.1.29.29,0,0,0,.15-.14.83.83,0,0,0,0-.26,1,1,0,0,0-.09-.47.62.62,0,0,0-.33-.28,1.37,1.37,0,0,0-.62-.12,1.22,1.22,0,0,0-.62.13.76.76,0,0,0-.34.32,1.35,1.35,0,0,0-.14.5h-.46a1.32,1.32,0,0,1,.44-1,1.71,1.71,0,0,1,1.17-.37,2.11,2.11,0,0,1,.76.13,1.22,1.22,0,0,1,.47.29.9.9,0,0,1,.19.36,2.87,2.87,0,0,1,0,.61v1.18c0,.44,0,.73,0,.87a.4.4,0,0,0,.06.23.28.28,0,0,0,.2.07l.19,0m-10-3.6v.7a3.14,3.14,0,0,1,.28-.38,1.27,1.27,0,0,1,.45-.3,1.35,1.35,0,0,1,.59-.13,1.51,1.51,0,0,1,.53.1,1.13,1.13,0,0,1,.41.29,1.33,1.33,0,0,1,.21.4,1.46,1.46,0,0,1,.29-.39,1.21,1.21,0,0,1,.46-.29,1.48,1.48,0,0,1,.57-.11,1.46,1.46,0,0,1,.6.12,1.08,1.08,0,0,1,.41.29,1.25,1.25,0,0,1,.22.43,1.89,1.89,0,0,1,.05.53v2.74h-.49V10.15a1.58,1.58,0,0,0-.09-.63.71.71,0,0,0-.32-.32,1,1,0,0,0-.51-.11,1,1,0,0,0-.53.12,1,1,0,0,0-.36.3,1.29,1.29,0,0,0-.19.49,2.67,2.67,0,0,0,0,.47v2.29h-.48v-2.6a1.56,1.56,0,0,0-.09-.61.6.6,0,0,0-.28-.33.92.92,0,0,0-.51-.13,1.08,1.08,0,0,0-.54.13,1,1,0,0,0-.4.35,1.24,1.24,0,0,0-.17.4,2.64,2.64,0,0,0-.06.6v2.19H29.1v-4Z"/><path class="cls-2" d="M72.1,16a.8.8,0,0,1-.22.12,3.62,3.62,0,0,1-.65.12,4.82,4.82,0,0,0-.86.18.79.79,0,0,0-.38.27.72.72,0,0,0-.12.4.77.77,0,0,0,.2.52.93.93,0,0,0,.7.23,1.51,1.51,0,0,0,.92-.32,1,1,0,0,0,.41-.88Zm.9,1.73v.37a1.15,1.15,0,0,1-.37.06A.44.44,0,0,1,72.2,18a1,1,0,0,1-.08-.5,1.67,1.67,0,0,1-.29.36,1.41,1.41,0,0,1-.5.31,1.78,1.78,0,0,1-.69.12,1.42,1.42,0,0,1-1-.3,1.08,1.08,0,0,1-.32-.8,1.49,1.49,0,0,1,.07-.43,1.08,1.08,0,0,1,.21-.34,1.54,1.54,0,0,1,.35-.24,3.25,3.25,0,0,1,.54-.16l.6-.07.46-.05a.89.89,0,0,0,.31-.09.27.27,0,0,0,.14-.14.52.52,0,0,0,0-.25.85.85,0,0,0-.1-.46.62.62,0,0,0-.31-.28,1.53,1.53,0,0,0-.62-.11,1.31,1.31,0,0,0-.6.12.76.76,0,0,0-.34.32,1.53,1.53,0,0,0-.12.48h-.46a1.28,1.28,0,0,1,.43-1,1.65,1.65,0,0,1,1.15-.36,2,2,0,0,1,.74.12,1.18,1.18,0,0,1,.46.29.78.78,0,0,1,.18.35,2.2,2.2,0,0,1,0,.6v2a.38.38,0,0,0,.07.22s.09.06.19.06l.18,0m-6.66-3.23a1.21,1.21,0,0,0-1,.43A1.79,1.79,0,0,0,65,16.19a1.88,1.88,0,0,0,.38,1.26,1.22,1.22,0,0,0,1,.43,1.24,1.24,0,0,0,1-.43,1.83,1.83,0,0,0,.38-1.25,2.16,2.16,0,0,0-.18-.94,1.2,1.2,0,0,0-.49-.55,1.31,1.31,0,0,0-.66-.18m1.78-1.79v5.41h-.43v-.77a1.51,1.51,0,0,1-.24.4,1.42,1.42,0,0,1-.51.37,1.69,1.69,0,0,1-.66.12A1.66,1.66,0,0,1,65,17.73a2.24,2.24,0,0,1-.49-1.52,2.19,2.19,0,0,1,.5-1.54,1.61,1.61,0,0,1,1.25-.54,1.66,1.66,0,0,1,.64.12,1.44,1.44,0,0,1,.49.32,1.54,1.54,0,0,1,.26.4V12.74Zm-7.59,1.51V15a1.81,1.81,0,0,1,.28-.4,1.19,1.19,0,0,1,.46-.32,1.39,1.39,0,0,1,.63-.13,1.75,1.75,0,0,1,.65.12,1.11,1.11,0,0,1,.45.32,1.14,1.14,0,0,1,.21.46,2.29,2.29,0,0,1,.06.61v2.5h-.48V15.79a2.09,2.09,0,0,0-.09-.72.67.67,0,0,0-.32-.37,1,1,0,0,0-.56-.14,1.33,1.33,0,0,0-.61.13,1,1,0,0,0-.4.34,1.64,1.64,0,0,0-.21.5,3.71,3.71,0,0,0,0,.66v2h-.47v-3.9ZM58.13,16a.8.8,0,0,1-.22.12,3.62,3.62,0,0,1-.65.12,5.21,5.21,0,0,0-.87.18.8.8,0,0,0-.37.27.72.72,0,0,0-.12.4.75.75,0,0,0,.21.52.9.9,0,0,0,.68.23,1.5,1.5,0,0,0,.93-.32,1.05,1.05,0,0,0,.41-.88Zm.9,1.73v.37a1.21,1.21,0,0,1-.38.06.43.43,0,0,1-.42-.22,1,1,0,0,1-.08-.5,1.67,1.67,0,0,1-.29.36,1.41,1.41,0,0,1-.5.31,2,2,0,0,1-.69.12,1.37,1.37,0,0,1-1-.31,1,1,0,0,1-.32-.79,1.21,1.21,0,0,1,.07-.43,1.33,1.33,0,0,1,.22-.34,1.09,1.09,0,0,1,.34-.24,3.25,3.25,0,0,1,.54-.16l.61-.07.45-.05a.89.89,0,0,0,.31-.09.29.29,0,0,0,.15-.14.76.76,0,0,0,0-.25,1.1,1.1,0,0,0-.09-.46.69.69,0,0,0-.32-.28,1.51,1.51,0,0,0-.61-.11,1.35,1.35,0,0,0-.61.12.73.73,0,0,0-.33.32,1.3,1.3,0,0,0-.13.48h-.46a1.28,1.28,0,0,1,.43-1,1.67,1.67,0,0,1,1.15-.36,2,2,0,0,1,.74.12,1.3,1.3,0,0,1,.46.28,1,1,0,0,1,.19.36,2.86,2.86,0,0,1,0,.6v1.15c0,.43,0,.71,0,.86a.4.4,0,0,0,0,.22.28.28,0,0,0,.2.06l.18,0m-6.6-3.21a1.19,1.19,0,0,0-.67.19,1.09,1.09,0,0,0-.45.57,2.18,2.18,0,0,0-.16.82,1.92,1.92,0,0,0,.16.81,1.15,1.15,0,0,0,.44.57,1.28,1.28,0,0,0,.67.19,1.29,1.29,0,0,0,.69-.2,1.12,1.12,0,0,0,.45-.57,2.1,2.1,0,0,0,.15-.86,1.81,1.81,0,0,0-.15-.78,1.08,1.08,0,0,0-.45-.55,1.2,1.2,0,0,0-.68-.19m1.74-.31v3.54a3.25,3.25,0,0,1-.07.81,1.21,1.21,0,0,1-.2.46,1.64,1.64,0,0,1-.31.33,1.72,1.72,0,0,1-.49.22,2.36,2.36,0,0,1-.67.09,2.31,2.31,0,0,1-.82-.14,1.16,1.16,0,0,1-.78-1h.49a.81.81,0,0,0,.23.51,1.22,1.22,0,0,0,.88.3,1.75,1.75,0,0,0,.64-.11.88.88,0,0,0,.33-.2,1.23,1.23,0,0,0,.21-.34,2.37,2.37,0,0,0,.11-.77v-.65a1.31,1.31,0,0,1-.25.39A1.25,1.25,0,0,1,53,18a1.52,1.52,0,0,1-.64.12,1.6,1.6,0,0,1-1.22-.52,2,2,0,0,1-.47-1.42,2.45,2.45,0,0,1,.22-1.08,1.51,1.51,0,0,1,.63-.71,1.71,1.71,0,0,1,.88-.24,1.52,1.52,0,0,1,.62.13,1.23,1.23,0,0,1,.46.34,1.4,1.4,0,0,1,.25.37v-.74ZM48.9,16a.63.63,0,0,1-.21.12,3.62,3.62,0,0,1-.65.12,4.82,4.82,0,0,0-.86.18.73.73,0,0,0-.38.27.72.72,0,0,0-.12.4.75.75,0,0,0,.21.52.9.9,0,0,0,.68.23,1.52,1.52,0,0,0,.93-.32,1,1,0,0,0,.4-.88Zm.91,1.73v.37a1.19,1.19,0,0,1-.37.06A.45.45,0,0,1,49,18a1.13,1.13,0,0,1-.08-.5,1.67,1.67,0,0,1-.29.36,1.41,1.41,0,0,1-.5.31,2,2,0,0,1-.69.12,1.33,1.33,0,0,1-.94-.31,1,1,0,0,1-.33-.79,1.21,1.21,0,0,1,.07-.43,1.11,1.11,0,0,1,.22-.34,1.22,1.22,0,0,1,.34-.24,3.25,3.25,0,0,1,.54-.16l.61-.07.45-.05a.89.89,0,0,0,.31-.09.34.34,0,0,0,.15-.14.81.81,0,0,0,0-.25.86.86,0,0,0-.09-.46.62.62,0,0,0-.31-.28,1.51,1.51,0,0,0-.61-.11,1.35,1.35,0,0,0-.61.12A.73.73,0,0,0,47,15a1.3,1.3,0,0,0-.13.48h-.45a1.24,1.24,0,0,1,.42-1,1.65,1.65,0,0,1,1.15-.36,2.11,2.11,0,0,1,.75.12,1.34,1.34,0,0,1,.45.28,1,1,0,0,1,.19.36,2.86,2.86,0,0,1,0,.6v1.15c0,.43,0,.71,0,.86a.32.32,0,0,0,.06.22.24.24,0,0,0,.19.06l.18,0m-6.5-3.23a1.2,1.2,0,0,0-1,.42A1.79,1.79,0,0,0,42,16.21a1.82,1.82,0,0,0,.38,1.24,1.25,1.25,0,0,0,1,.42,1.17,1.17,0,0,0,.93-.43,1.78,1.78,0,0,0,.38-1.22,2.28,2.28,0,0,0-.18-.94A1.42,1.42,0,0,0,44,14.7a1.29,1.29,0,0,0-.65-.17M42,14.25V15a1.53,1.53,0,0,1,.56-.64,1.6,1.6,0,0,1,.83-.22,1.76,1.76,0,0,1,.93.26,1.62,1.62,0,0,1,.62.74,2.67,2.67,0,0,1,.21,1.08,2.19,2.19,0,0,1-.49,1.52,1.64,1.64,0,0,1-1.25.54,1.6,1.6,0,0,1-.83-.21,1.36,1.36,0,0,1-.55-.63v2.18h-.47V14.25Zm-3.55.28a1.28,1.28,0,0,0-.69.19,1.34,1.34,0,0,0-.5.57,2.11,2.11,0,0,0-.18.91,2.05,2.05,0,0,0,.17.89,1.3,1.3,0,0,0,.49.59,1.39,1.39,0,0,0,.72.19,1.27,1.27,0,0,0,.72-.21,1.24,1.24,0,0,0,.48-.59,2.31,2.31,0,0,0,.16-.86,2,2,0,0,0-.19-.92,1.29,1.29,0,0,0-.49-.58,1.37,1.37,0,0,0-.69-.18m0-.4a1.76,1.76,0,0,1,1.23.44,2.13,2.13,0,0,1,.62,1.64,2.13,2.13,0,0,1-.51,1.52,1.78,1.78,0,0,1-1.34.54,2,2,0,0,1-.95-.23,1.75,1.75,0,0,1-.66-.71,2.54,2.54,0,0,1-.25-1.13,2.5,2.5,0,0,1,.15-.9,1.81,1.81,0,0,1,.38-.62,1.29,1.29,0,0,1,.47-.35,1.88,1.88,0,0,1,.86-.2M36,14.19v.48h-.13a1.44,1.44,0,0,0-.51.09,1.3,1.3,0,0,0-.39.25,1,1,0,0,0-.25.33,1.39,1.39,0,0,0-.13.42,3.92,3.92,0,0,0-.06.8v1.59H34v-3.9h.45v.93a2,2,0,0,1,.34-.56,1.27,1.27,0,0,1,.47-.32,1.73,1.73,0,0,1,.68-.11m-5.08.34a1.25,1.25,0,0,0-1,.42,1.84,1.84,0,0,0-.37,1.26,1.77,1.77,0,0,0,.38,1.24,1.24,1.24,0,0,0,1,.42,1.19,1.19,0,0,0,.94-.43,1.78,1.78,0,0,0,.38-1.22,2.28,2.28,0,0,0-.18-.94,1.19,1.19,0,0,0-1.14-.75m-1.35-.28V15a1.46,1.46,0,0,1,.56-.64,1.58,1.58,0,0,1,.83-.22,1.7,1.7,0,0,1,.92.26,1.58,1.58,0,0,1,.63.74,2.67,2.67,0,0,1,.22,1.08,2.15,2.15,0,0,1-.51,1.52,1.61,1.61,0,0,1-1.24.54,1.66,1.66,0,0,1-.84-.21,1.4,1.4,0,0,1-.54-.63v2.18H29.1V14.25Z"/></svg>