<?xml version="1.0" encoding="utf-8"?>
<!-- Generator: Adobe Illustrator 19.2.1, SVG Export Plug-In . SVG Version: 6.00 Build 0)  -->
<svg version="1.1" id="Layer_1" xmlns="http://www.w3.org/2000/svg" xmlns:xlink="http://www.w3.org/1999/xlink" x="0px" y="0px"
	 viewBox="0 0 409.6 409.6" style="enable-background:new 0 0 409.6 409.6;" xml:space="preserve">
<style type="text/css">
	.st0{clip-path:url(#SVGID_2_);fill:#FFFFFF;}
	.st1{clip-path:url(#SVGID_2_);fill-rule:evenodd;clip-rule:evenodd;fill:#FFFFFF;}
</style>
<g>
	<defs>
		<rect id="SVGID_1_" width="409.6" height="409.6"/>
	</defs>
	<clipPath id="SVGID_2_">
		<use xlink:href="#SVGID_1_"  style="overflow:visible;"/>
	</clipPath>
	<path class="st0" d="M204.8,0C91.7,0,0,91.7,0,204.8c0,113.1,91.7,204.8,204.8,204.8s204.8-91.7,204.8-204.8
		C409.6,91.7,317.9,0,204.8,0 M204.8,377.6C109.4,377.6,32,300.2,32,204.8C32,109.4,109.4,32,204.8,32s172.8,77.4,172.8,172.8
		C377.6,300.2,300.2,377.6,204.8,377.6"/>
	<path class="st1" d="M102.5,307.1h38.4V153.5h-38.4V307.1z M256.1,153.5c-32.9,0.5-49,24.5-51.2,25.6v-25.6h-38.4v153.6h38.4v-89.6
		c0-3.3,8.1-29.6,38.4-25.6c16.3,1.1,25.1,22.6,25.6,25.6v89.6l38.3,0.2V200.9C305.8,185.6,298.1,154.1,256.1,153.5 M121.7,102.3
		c-10.6,0-19.2,8.6-19.2,19.2c0,10.6,8.6,19.2,19.2,19.2c10.6,0,19.2-8.6,19.2-19.2C140.9,110.9,132.3,102.3,121.7,102.3"/>
</g>
</svg>
