<?xml version="1.0" encoding="utf-8"?>
<!-- Generator: Adobe Illustrator 19.2.1, SVG Export Plug-In . SVG Version: 6.00 Build 0)  -->
<svg version="1.1" id="Layer_1" xmlns="http://www.w3.org/2000/svg" xmlns:xlink="http://www.w3.org/1999/xlink" x="0px" y="0px"
	 viewBox="0 0 469.3 362.7" style="enable-background:new 0 0 469.3 362.7;" xml:space="preserve">
<style type="text/css">
	.st0{clip-path:url(#SVGID_2_);fill:#FFFFFF;}
</style>
<g>
	<defs>
		<rect id="SVGID_1_" width="469.3" height="362.7"/>
	</defs>
	<clipPath id="SVGID_2_">
		<use xlink:href="#SVGID_1_"  style="overflow:visible;"/>
	</clipPath>
	<path class="st0" d="M318.5,362.7H117.3c-17.6,0-32-14.4-32-32c0-23.5,17.6-43.8,40.8-47.1l86.1-13.5L67.1,124.8
		c-15.9-15.9-15.9-41.8,0-57.6c16-16,41.9-16,57.7-0.1l37.8,37.8c1.9-6.3,5.3-12.2,10.2-17.2c14.7-14.7,37.7-15.9,53.7-3.7
		c1.8-6.5,5.3-12.5,10.3-17.6c14.7-14.7,37.7-15.9,53.7-3.7c1.8-6.5,5.2-12.6,10.3-17.6c16-16,41.9-16,57.7-0.1l80.2,88.1
		c19.7,21.6,30.5,49.6,30.5,78.9c0,31.3-12.2,60.7-34.3,82.9l-33.6,33.6C379.3,350.5,349.8,362.7,318.5,362.7 M96,76.5
		c-5,0-9.9,1.9-13.7,5.7c-7.7,7.7-7.7,20-0.1,27.6l160.1,160.1c2.8,2.8,3.8,7,2.6,10.8c-1.3,3.8-4.5,6.6-8.5,7.2l-107,16.8
		c-13,1.9-22.7,13-22.7,26c0,5.9,4.8,10.7,10.7,10.7h201.2c25.6,0,49.8-10,67.9-28.1l33.6-33.6c18.1-18.1,28.1-42.2,28.1-67.8
		c0-23.9-8.9-46.8-24.9-64.5l-79.9-87.8c-7.2-7.2-19.5-7.2-27.1,0.4c-3.8,3.8-5.8,8.7-5.8,13.8c0,5.2,2,10.1,5.7,13.7l0.9,0.9
		c4.2,4.2,4.2,10.9,0,15.1c-4.1,4.1-10.7,4.2-14.9,0.2c0,0,0,0,0,0h0l0,0l0,0l0,0c0,0,0,0,0,0l-22.4-22.4c-7.6-7.6-19.9-7.6-27.5,0
		c-7.7,7.7-7.7,20-0.1,27.6l22.2,22.3c2.1,2.1,3.1,4.8,3.1,7.6c0,2.7-1,5.5-3.1,7.6c-4.2,4.2-10.9,4.2-15.1,0l-43.6-43.6
		c-7.6-7.6-19.9-7.6-27.5,0c-7.7,7.7-7.7,20-0.1,27.6l43.6,43.6c2.1,2.1,3.1,4.8,3.1,7.6c0,2.7-1,5.5-3.1,7.6
		c-4.2,4.2-10.9,4.2-15.1,0L109.7,82.2C105.9,78.4,101,76.5,96,76.5"/>
	<path class="st0" d="M61,184.3c-1.5,0-3-0.3-4.4-0.9C22.2,167.9,0,133.5,0,96C0,43.1,43.1,0,96,0c37.5,0,71.8,22.2,87.4,56.6
		c2.4,5.4,0,11.7-5.3,14.1c-5.4,2.5-11.7,0-14.1-5.3C151.8,38.6,125.2,21.3,96,21.3c-41.2,0-74.7,33.5-74.7,74.7
		c0,29.2,17.3,55.9,44.1,67.9c5.4,2.4,7.7,8.7,5.3,14.1C68.9,182,65,184.3,61,184.3"/>
</g>
</svg>
