<svg id="Layer_1" data-name="Layer 1" xmlns="http://www.w3.org/2000/svg" viewBox="0 0 1678.23 1587.59">
    <defs>
        <style>
            .dash {
                stroke: #a8a8a8;
                stroke-dasharray: 12.16 12.16;
                stroke-miterlimit: 10;
                stroke-width: 3px;
            }
            .circle-5 {
                fill: #7c77b9;
            }
            .circle-6p {
                fill: #4f4f4f;
            }
            .circle-1 {
                fill: #1d8a99;
            }
            .circle-2 {
                fill: #6ccdde;
            }
            .circle-3 {
                fill: #e9d758;
            }
            .circle-4 {
                fill: #82ff9f;
            }
            .small-1{
                fill: #e9d758;
            }
            .small-2{
                fill: #6ccdde;
            }
            .small-3{
                fill: #7c77b9;
            }
            .small-4{
                fill: #1d8a99;
            }
        </style>
    </defs>
    <title>linhas</title>
    <line class="dash" x1="731.77" y1="1587.41" x2="732.48" y2="1581.45"/>
    <line class="dash" x1="733.9" y1="1569.54" x2="761.64" y2="1337.15"/>
    <line class="dash" x1="762.35" y1="1331.19" x2="763.06" y2="1325.24"/>
    <line class="dash" x1="1297.63" y1="293.11" x2="1347.61" y2="0.25"/>
    <line class="dash" x1="1677.64" y1="1125.36" x2="1672.13" y2="1122.99"/>
    <line class="dash" x1="1661.37" y1="1118.34" x2="1322.49" y2="972.03"/>
    <line class="dash" x1="1317.11" y1="969.7" x2="1311.6" y2="967.33"/>
    <line class="dash" x1="1599.33" y1="197.2" x2="1593.64" y2="199.09"/>
    <line class="dash" x1="1582.5" y1="202.77" x2="1320.86" y2="289.38"/>
    <line class="dash" x1="1315.29" y1="291.22" x2="1309.6" y2="293.11"/>
    <line class="dash" x1="290.21" y1="927.45" x2="284.51" y2="929.33"/>
    <line class="dash" x1="273.38" y1="933.02" x2="11.73" y2="1019.63"/>
    <line class="dash" x1="6.17" y1="1021.47" x2="0.47" y2="1023.35"/>
    <line class="dash" x1="519.13" y1="354.27" x2="515.09" y2="349.84"/>
    <line class="dash" x1="507.14" y1="341.12" x2="272.52" y2="84.05"/>
    <line class="dash" x1="268.54" y1="79.69" x2="264.5" y2="75.26"/>
    <line class="dash" x1="804.39" y1="837.34" x2="803.47" y2="843.27"/>
    <line class="dash" x1="801.66" y1="855.04" x2="733.59" y2="1296.57"/>
    <line class="dash" x1="732.68" y1="1302.45" x2="731.77" y2="1308.38"/>
    <line class="dash" x1="946.08" y1="843.34" x2="951.7" y2="845.44"/>
    <line class="dash" x1="962.85" y1="849.63" x2="1358.83" y2="998.15"/>
    <line class="dash" x1="1364.41" y1="1000.25" x2="1370.02" y2="1002.35"/>
    <line class="dash" x1="282.5" y1="956.61" x2="288.39" y2="955.46"/>
    <line class="dash" x1="300.32" y1="953.12" x2="771.7" y2="860.66"/>
    <line class="dash" x1="777.66" y1="859.49" x2="783.55" y2="858.34"/>
    <line class="dash" x1="747.11" y1="852.34" x2="745.17" y2="846.66"/>
    <line class="dash" x1="741.31" y1="835.37" x2="589.07" y2="389.61"/>
    <line class="dash" x1="587.14" y1="383.97" x2="585.2" y2="378.29"/>
    <line class="dash" x1="798.55" y1="813.33" x2="802.7" y2="809"/>
    <line class="dash" x1="811.02" y1="800.33" x2="1289.32" y2="301.78"/>
    <line class="dash" x1="1293.48" y1="297.44" x2="1297.63" y2="293.11"/>
    <line class="dash" x1="627.53" y1="403.93" x2="633.46" y2="403"/>
    <line class="dash" x1="645.26" y1="401.16" x2="1252.8" y2="306.45"/>
    <line class="dash" x1="1258.7" y1="305.54" x2="1264.63" y2="304.61"/>
    <line class="dash" x1="306.5" y1="981.35" x2="311.26" y2="985.01"/>
    <line class="dash" x1="320.93" y1="992.44" x2="722.18" y2="1301.01"/>
    <line class="dash" x1="727.01" y1="1304.73" x2="731.77" y2="1308.38"/>
    <line class="dash" x1="759.55" y1="1291.53" x2="764.87" y2="1288.76"/>
    <line class="dash" x1="775.64" y1="1283.14" x2="1222.89" y2="1049.98"/>
    <line class="dash" x1="1228.27" y1="1047.18" x2="1233.59" y2="1044.4"/>
    <line class="dash" x1="1347.61" y1="906.34" x2="1347.26" y2="900.35"/>
    <line class="dash" x1="1346.57" y1="888.48" x2="1315.29" y2="348.21"/>
    <line class="dash" x1="1314.95" y1="342.28" x2="1314.6" y2="336.29"/>
    <line class="dash" x1="301.74" y1="834.84" x2="304.83" y2="829.69"/>
    <line class="dash" x1="310.98" y1="819.46" x2="480.23" y2="538.14"/>
    <line class="dash" x1="483.31" y1="533.03" x2="486.4" y2="527.88"/>
    <circle class="circle-5" cx="561.39" cy="403.93" r="185.71"/>
    <circle class="circle-6p" cx="804.39" cy="825.22" r="219.18"/>
    <circle class="circle-1" cx="1330.41" cy="967.33" r="189.6"/>
    <circle class="circle-2" cx="290.21" cy="927.45" r="166.23"/>
    <circle class="circle-3" cx="731.77" cy="1291.53" r="134.6"/>
    <circle class="circle-4" cx="1297.63" cy="293.11" r="156.83"/>
    <circle class="small-1" cx="1330.41" cy="609.25" r="72.86"/>
    <circle class="small-2" cx="996.57" cy="1167.97" r="63.21"/>
    <circle class="small-3" cx="385.28" cy="676.07" r="58.4"/>
    <circle class="small-4" cx="916.35" cy="354.27" r="49.98"/>
</svg>